# xmcd CD database file
#
# Track frame offsets:
#	150
#	16059
#	43813
#	66707
#	85077
#	108522
#	130444
#	160896
#	180177
#	208291
#	222603
#	258000
#	271745
#	295547
#	313326
#
# Disc length: 4570 seconds
#
# Revision: 0
# Processed by: cddbd v1.5.1PL0 Copyright (c) Steve Scherf et al.
# Submitted via: CDex 1.51
#
DISCID=df11d80f
DTITLE=Various Artist - Beyond The Skies Vol.4 [CD1)
DYEAR=2004
DGENRE=New Age
TTITLE0=Rosenstolz - Amo Vitam
TTITLE1=Star Inc. - L'Apocalypse Des Animaux
TTITLE2=Blackmore's Night - Shadow Of The Moon
TTITLE3=Mike Oldfield - Guilty
TTITLE4=Marc Glenroy - Promises
TTITLE5=Inkarnation - Garden Of My Soul
TTITLE6=Lago feat. Teresa Gold - Amore
TTITLE7=Karen Matheson - An Fhideag Airgid
TTITLE8=Nautilus - The Rolling Silence
TTITLE9=Flowers - Kiato
TTITLE10=Elonia - May Morning Dew-Foggy Dew
TTITLE11=Lydia - Fly Away
TTITLE12=Terracotta - Dancing In The Path
TTITLE13=Elysia - Come The Night
TTITLE14=Eona - Awakening
EXTD=YEAR: 2004
EXTT0=
EXTT1=
EXTT2=
EXTT3=
EXTT4=
EXTT5=
EXTT6=
EXTT7=
EXTT8=
EXTT9=
EXTT10=
EXTT11=
EXTT12=
EXTT13=
EXTT14=
PLAYORDER=
